<svg id="Layer_1" data-name="Layer 1" xmlns="http://www.w3.org/2000/svg" viewBox="0 0 432 432"><title>logo</title><rect width="432" height="432" style="fill:#fff"/><path d="M486.5,235.43h-.84a92.25,92.25,0,1,1,0,158.32h.85l45.7-79.16Z" transform="translate(-199.03 -102.84)" style="fill:#e71d73"/><polygon points="166.28 110.73 219.79 203.41 166.28 296.09 59.27 296.09 5.76 203.41 59.27 110.73 112.27 202.91 166.28 110.73" style="fill:#ffd500"/><polygon points="59.27 296.09 5.76 203.41 59.27 110.73 166.28 110.73 219.79 203.41 166.28 296.09 113.27 203.91 59.27 296.09" style="fill:#e71d73"/><path d="M579.94,393.76h.84a92.25,92.25,0,1,1,0-158.32h-.85l-45.7,79.16Z" transform="translate(-199.03 -102.84)" style="fill:#ffd500"/></svg>